<svg xmlns="http://www.w3.org/2000/svg" viewBox="0 0 1200 620"><rect width="1200" height="620" rx="36" fill="#f3f7fc"/><g font-family="Arial"><text x="65" y="82" font-size="30" font-weight="700" fill="#172033">Secure Application Delivery</text><text x="65" y="120" font-size="18" fill="#64748b">HTTPS · path routing · backend isolation</text></g><g stroke="#94a3b8" stroke-width="5"><path d="M235 320H455M745 320H900M745 320L900 190M745 320L900 450"/></g><g fill="white" stroke="#d5dee8" stroke-width="3"><rect x="75" y="250" width="160" height="140" rx="24"/><rect x="455" y="205" width="290" height="230" rx="30"/><rect x="900" y="125" width="230" height="115" rx="22"/><rect x="900" y="265" width="230" height="115" rx="22"/><rect x="900" y="405" width="230" height="115" rx="22"/></g><g font-family="Arial" text-anchor="middle"><text x="155" y="315" font-size="22" fill="#334155">Internet</text><text x="155" y="348" font-size="16" fill="#64748b">Authorized IPs</text><text x="600" y="285" font-size="30" font-weight="700" fill="#2563eb">F5 BIG-IP</text><text x="600" y="328" font-size="18" fill="#475569">Virtual Server</text><text x="600" y="360" font-size="18" fill="#475569">TLS + iRules</text><text x="1015" y="185" font-size="20" fill="#334155">Grafana</text><text x="1015" y="325" font-size="20" fill="#334155">Prometheus</text><text x="1015" y="465" font-size="20" fill="#334155">Internal Apps</text></g></svg>